<svg width="1451" height="253" viewBox="0 0 1451 253" fill="none" xmlns="http://www.w3.org/2000/svg" xmlns:xlink="http://www.w3.org/1999/xlink">
<mask id="path-1-outside-1_12_214" maskUnits="userSpaceOnUse" x="5" y="24" width="1433" height="231" fill="black">
<rect fill="white" x="5" y="24" width="1433" height="231"/>
<path d="M75.9688 72.0927C93.2308 72.0927 107.806 75.5125 119.694 82.3522C131.744 89.0289 137.77 99.4513 137.77 113.619H92.5794C92.5794 108.896 90.4624 105.558 86.2283 103.604C83.297 101.975 79.6329 101.161 75.236 101.161C63.5109 101.161 57.6484 103.93 57.6484 109.466C57.6484 112.561 59.684 114.759 63.7552 116.062C67.8264 117.365 74.5032 118.749 83.7856 120.214C95.185 121.843 104.712 123.797 112.365 126.077C120.019 128.194 126.696 132.102 132.396 137.802C138.096 143.339 140.945 151.156 140.945 161.252C140.945 177.7 134.757 189.425 122.381 196.428C110.167 203.43 94.1264 206.931 74.2589 206.931C62.8595 206.931 52.1115 205.384 42.0149 202.29C31.9183 199.033 23.6945 194.066 17.3434 187.389C10.9923 180.713 7.81673 172.245 7.81673 161.985H53.0072V162.962C53.17 168.499 55.4499 172.407 59.8468 174.687C64.4066 176.804 69.2106 177.863 74.2589 177.863C87.7754 177.863 94.5336 174.687 94.5336 168.336C94.5336 165.079 92.4165 162.718 88.1825 161.252C83.9484 159.787 77.0273 158.24 67.4193 156.611C55.857 154.657 46.3304 152.54 38.8394 150.26C31.5112 147.98 25.0787 144.153 19.5418 138.779C14.005 133.242 11.2365 125.588 11.2365 115.818C11.2365 100.021 17.1805 88.7847 29.0685 82.1079C41.1192 75.4311 56.7527 72.0927 75.9688 72.0927ZM212.597 88.459C217.809 83.2478 223.915 79.258 230.918 76.4896C237.92 73.5583 245.249 72.0927 252.902 72.0927C267.885 72.0927 279.121 76.2453 286.612 84.5506C294.103 92.8559 297.849 104.825 297.849 120.459V204H249.238V126.321C249.238 120.784 247.773 116.387 244.841 113.131C242.073 109.711 238.083 108.001 232.872 108.001C226.847 108.001 221.961 109.955 218.216 113.863C214.47 117.772 212.597 122.576 212.597 128.275V204H163.987V26.9022H212.597V88.459ZM390.67 72.0927C410.375 72.0927 426.416 75.4311 438.792 82.1079C451.169 88.6218 457.357 99.2884 457.357 114.108V164.428C457.357 167.196 458.008 169.476 459.311 171.267C460.614 173.059 462.568 173.954 465.174 173.954H473.967V202.046C473.479 202.372 472.176 202.941 470.059 203.756C468.105 204.407 465.255 205.059 461.51 205.71C457.764 206.524 453.449 206.931 448.563 206.931C439.118 206.931 431.301 205.547 425.113 202.779C419.087 199.847 414.935 195.858 412.655 190.809C406.467 195.695 399.546 199.603 391.892 202.534C384.238 205.466 375.281 206.931 365.022 206.931C334.732 206.931 319.587 194.88 319.587 170.779C319.587 158.24 322.925 148.713 329.602 142.199C336.442 135.522 346.213 130.962 358.915 128.52C371.617 126.077 388.228 124.856 408.747 124.856V118.505C408.747 113.456 406.955 109.629 403.373 107.024C399.953 104.418 395.474 103.115 389.938 103.115C384.889 103.115 380.492 104.011 376.747 105.802C373.164 107.594 371.373 110.444 371.373 114.352V115.329H323.495C323.333 114.515 323.251 113.375 323.251 111.909C323.251 99.6955 329.032 90.006 340.594 82.8407C352.32 75.6754 369.012 72.0927 390.67 72.0927ZM408.747 147.817C394.904 147.817 384.645 149.364 377.968 152.458C371.454 155.39 368.197 159.38 368.197 164.428C368.197 172.57 373.734 176.641 384.808 176.641C391.159 176.641 396.696 174.932 401.418 171.512C406.304 168.092 408.747 163.858 408.747 158.81V147.817ZM583.644 204L579.491 185.68C570.046 199.847 556.367 206.931 538.454 206.931C521.029 206.931 507.594 201.232 498.149 189.832C488.703 178.433 483.981 161.578 483.981 139.268C483.981 117.12 488.703 100.428 498.149 89.1918C507.594 77.7924 521.029 72.0927 538.454 72.0927C553.273 72.0927 565.324 77.0596 574.606 86.9933V26.9022H623.216V204H583.644ZM553.598 108.001C539.593 108.001 532.591 116.387 532.591 133.161V146.107C532.591 162.718 539.593 171.023 553.598 171.023C560.764 171.023 566.138 168.499 569.72 163.451C573.303 158.402 575.094 151.807 575.094 143.665V135.604C575.094 127.461 573.303 120.866 569.72 115.818C566.138 110.606 560.764 108.001 553.598 108.001ZM716.526 72.0927C736.231 72.0927 752.272 75.4311 764.648 82.1079C777.025 88.6218 783.213 99.2884 783.213 114.108V164.428C783.213 167.196 783.864 169.476 785.167 171.267C786.47 173.059 788.424 173.954 791.03 173.954H799.823V202.046C799.335 202.372 798.032 202.941 795.915 203.756C793.961 204.407 791.111 205.059 787.366 205.71C783.62 206.524 779.305 206.931 774.419 206.931C764.974 206.931 757.157 205.547 750.969 202.779C744.943 199.847 740.791 195.858 738.511 190.809C732.323 195.695 725.402 199.603 717.748 202.534C710.094 205.466 701.137 206.931 690.878 206.931C660.588 206.931 645.443 194.88 645.443 170.779C645.443 158.24 648.781 148.713 655.458 142.199C662.298 135.522 672.069 130.962 684.771 128.52C697.473 126.077 714.084 124.856 734.603 124.856V118.505C734.603 113.456 732.811 109.629 729.229 107.024C725.809 104.418 721.33 103.115 715.794 103.115C710.745 103.115 706.348 104.011 702.603 105.802C699.02 107.594 697.229 110.444 697.229 114.352V115.329H649.351C649.189 114.515 649.107 113.375 649.107 111.909C649.107 99.6955 654.888 90.006 666.451 82.8407C678.176 75.6754 694.868 72.0927 716.526 72.0927ZM734.603 147.817C720.76 147.817 710.501 149.364 703.824 152.458C697.31 155.39 694.053 159.38 694.053 164.428C694.053 172.57 699.59 176.641 710.664 176.641C717.015 176.641 722.552 174.932 727.274 171.512C732.16 168.092 734.603 163.858 734.603 158.81V147.817ZM903.092 72.0927C920.516 72.0927 933.951 77.7924 943.397 89.1918C952.842 100.591 957.565 117.446 957.565 139.756C957.565 161.904 952.842 178.677 943.397 190.076C933.951 201.313 920.516 206.931 903.092 206.931C888.11 206.931 876.059 202.046 866.939 192.275V252.122H818.329V75.024H857.901L862.054 93.3444C871.499 79.1766 885.178 72.0927 903.092 72.0927ZM887.947 108.001C880.781 108.001 875.407 110.525 871.825 115.573C868.242 120.622 866.451 127.217 866.451 135.359V143.42C866.451 151.563 868.242 158.24 871.825 163.451C875.407 168.499 880.781 171.023 887.947 171.023C901.952 171.023 908.954 162.636 908.954 145.863V132.917C908.954 116.306 901.952 108.001 887.947 108.001ZM982.723 59.8791V26.9022H1031.33V59.8791H982.723ZM982.723 204V75.024H1031.33V204H982.723ZM1209.41 204H1152.74L1128.31 163.451H1127.33L1102.66 204H1048.68L1098.27 135.604L1053.56 75.024H1110.72L1131.24 109.222H1132.22L1152.74 75.024H1206.48L1161.04 136.825L1209.41 204ZM1287.92 72.0927C1311.53 72.0927 1329.52 77.6295 1341.9 88.7032C1354.44 99.7769 1360.71 116.713 1360.71 139.512V147.817H1263.98C1263.98 157.1 1266.01 164.102 1270.08 168.825C1274.32 173.547 1280.91 175.909 1289.87 175.909C1298.01 175.909 1303.96 174.199 1307.7 170.779C1311.61 167.359 1313.57 162.799 1313.57 157.1H1360.71C1360.71 172.733 1354.77 184.947 1342.88 193.741C1330.99 202.534 1313.65 206.931 1290.85 206.931C1266.91 206.931 1248.34 201.394 1235.15 190.321C1221.96 179.084 1215.37 162.148 1215.37 139.512C1215.37 117.365 1221.8 100.591 1234.67 89.1918C1247.53 77.7924 1265.28 72.0927 1287.92 72.0927ZM1289.87 103.115C1274.56 103.115 1266.01 110.362 1264.22 124.856H1311.61C1311.61 118.179 1309.66 112.886 1305.75 108.978C1302 105.07 1296.71 103.115 1289.87 103.115ZM1385.87 204V26.9022H1434.48V204H1385.87Z"/>
</mask>
<path d="M75.9688 72.0927C93.2308 72.0927 107.806 75.5125 119.694 82.3522C131.744 89.0289 137.77 99.4513 137.77 113.619H92.5794C92.5794 108.896 90.4624 105.558 86.2283 103.604C83.297 101.975 79.6329 101.161 75.236 101.161C63.5109 101.161 57.6484 103.93 57.6484 109.466C57.6484 112.561 59.684 114.759 63.7552 116.062C67.8264 117.365 74.5032 118.749 83.7856 120.214C95.185 121.843 104.712 123.797 112.365 126.077C120.019 128.194 126.696 132.102 132.396 137.802C138.096 143.339 140.945 151.156 140.945 161.252C140.945 177.7 134.757 189.425 122.381 196.428C110.167 203.43 94.1264 206.931 74.2589 206.931C62.8595 206.931 52.1115 205.384 42.0149 202.29C31.9183 199.033 23.6945 194.066 17.3434 187.389C10.9923 180.713 7.81673 172.245 7.81673 161.985H53.0072V162.962C53.17 168.499 55.4499 172.407 59.8468 174.687C64.4066 176.804 69.2106 177.863 74.2589 177.863C87.7754 177.863 94.5336 174.687 94.5336 168.336C94.5336 165.079 92.4165 162.718 88.1825 161.252C83.9484 159.787 77.0273 158.24 67.4193 156.611C55.857 154.657 46.3304 152.54 38.8394 150.26C31.5112 147.98 25.0787 144.153 19.5418 138.779C14.005 133.242 11.2365 125.588 11.2365 115.818C11.2365 100.021 17.1805 88.7847 29.0685 82.1079C41.1192 75.4311 56.7527 72.0927 75.9688 72.0927ZM212.597 88.459C217.809 83.2478 223.915 79.258 230.918 76.4896C237.92 73.5583 245.249 72.0927 252.902 72.0927C267.885 72.0927 279.121 76.2453 286.612 84.5506C294.103 92.8559 297.849 104.825 297.849 120.459V204H249.238V126.321C249.238 120.784 247.773 116.387 244.841 113.131C242.073 109.711 238.083 108.001 232.872 108.001C226.847 108.001 221.961 109.955 218.216 113.863C214.47 117.772 212.597 122.576 212.597 128.275V204H163.987V26.9022H212.597V88.459ZM390.67 72.0927C410.375 72.0927 426.416 75.4311 438.792 82.1079C451.169 88.6218 457.357 99.2884 457.357 114.108V164.428C457.357 167.196 458.008 169.476 459.311 171.267C460.614 173.059 462.568 173.954 465.174 173.954H473.967V202.046C473.479 202.372 472.176 202.941 470.059 203.756C468.105 204.407 465.255 205.059 461.51 205.71C457.764 206.524 453.449 206.931 448.563 206.931C439.118 206.931 431.301 205.547 425.113 202.779C419.087 199.847 414.935 195.858 412.655 190.809C406.467 195.695 399.546 199.603 391.892 202.534C384.238 205.466 375.281 206.931 365.022 206.931C334.732 206.931 319.587 194.88 319.587 170.779C319.587 158.24 322.925 148.713 329.602 142.199C336.442 135.522 346.213 130.962 358.915 128.52C371.617 126.077 388.228 124.856 408.747 124.856V118.505C408.747 113.456 406.955 109.629 403.373 107.024C399.953 104.418 395.474 103.115 389.938 103.115C384.889 103.115 380.492 104.011 376.747 105.802C373.164 107.594 371.373 110.444 371.373 114.352V115.329H323.495C323.333 114.515 323.251 113.375 323.251 111.909C323.251 99.6955 329.032 90.006 340.594 82.8407C352.32 75.6754 369.012 72.0927 390.67 72.0927ZM408.747 147.817C394.904 147.817 384.645 149.364 377.968 152.458C371.454 155.39 368.197 159.38 368.197 164.428C368.197 172.57 373.734 176.641 384.808 176.641C391.159 176.641 396.696 174.932 401.418 171.512C406.304 168.092 408.747 163.858 408.747 158.81V147.817ZM583.644 204L579.491 185.68C570.046 199.847 556.367 206.931 538.454 206.931C521.029 206.931 507.594 201.232 498.149 189.832C488.703 178.433 483.981 161.578 483.981 139.268C483.981 117.12 488.703 100.428 498.149 89.1918C507.594 77.7924 521.029 72.0927 538.454 72.0927C553.273 72.0927 565.324 77.0596 574.606 86.9933V26.9022H623.216V204H583.644ZM553.598 108.001C539.593 108.001 532.591 116.387 532.591 133.161V146.107C532.591 162.718 539.593 171.023 553.598 171.023C560.764 171.023 566.138 168.499 569.72 163.451C573.303 158.402 575.094 151.807 575.094 143.665V135.604C575.094 127.461 573.303 120.866 569.72 115.818C566.138 110.606 560.764 108.001 553.598 108.001ZM716.526 72.0927C736.231 72.0927 752.272 75.4311 764.648 82.1079C777.025 88.6218 783.213 99.2884 783.213 114.108V164.428C783.213 167.196 783.864 169.476 785.167 171.267C786.47 173.059 788.424 173.954 791.03 173.954H799.823V202.046C799.335 202.372 798.032 202.941 795.915 203.756C793.961 204.407 791.111 205.059 787.366 205.71C783.62 206.524 779.305 206.931 774.419 206.931C764.974 206.931 757.157 205.547 750.969 202.779C744.943 199.847 740.791 195.858 738.511 190.809C732.323 195.695 725.402 199.603 717.748 202.534C710.094 205.466 701.137 206.931 690.878 206.931C660.588 206.931 645.443 194.88 645.443 170.779C645.443 158.24 648.781 148.713 655.458 142.199C662.298 135.522 672.069 130.962 684.771 128.52C697.473 126.077 714.084 124.856 734.603 124.856V118.505C734.603 113.456 732.811 109.629 729.229 107.024C725.809 104.418 721.33 103.115 715.794 103.115C710.745 103.115 706.348 104.011 702.603 105.802C699.02 107.594 697.229 110.444 697.229 114.352V115.329H649.351C649.189 114.515 649.107 113.375 649.107 111.909C649.107 99.6955 654.888 90.006 666.451 82.8407C678.176 75.6754 694.868 72.0927 716.526 72.0927ZM734.603 147.817C720.76 147.817 710.501 149.364 703.824 152.458C697.31 155.39 694.053 159.38 694.053 164.428C694.053 172.57 699.59 176.641 710.664 176.641C717.015 176.641 722.552 174.932 727.274 171.512C732.16 168.092 734.603 163.858 734.603 158.81V147.817ZM903.092 72.0927C920.516 72.0927 933.951 77.7924 943.397 89.1918C952.842 100.591 957.565 117.446 957.565 139.756C957.565 161.904 952.842 178.677 943.397 190.076C933.951 201.313 920.516 206.931 903.092 206.931C888.11 206.931 876.059 202.046 866.939 192.275V252.122H818.329V75.024H857.901L862.054 93.3444C871.499 79.1766 885.178 72.0927 903.092 72.0927ZM887.947 108.001C880.781 108.001 875.407 110.525 871.825 115.573C868.242 120.622 866.451 127.217 866.451 135.359V143.42C866.451 151.563 868.242 158.24 871.825 163.451C875.407 168.499 880.781 171.023 887.947 171.023C901.952 171.023 908.954 162.636 908.954 145.863V132.917C908.954 116.306 901.952 108.001 887.947 108.001ZM982.723 59.8791V26.9022H1031.33V59.8791H982.723ZM982.723 204V75.024H1031.33V204H982.723ZM1209.41 204H1152.74L1128.31 163.451H1127.33L1102.66 204H1048.68L1098.27 135.604L1053.56 75.024H1110.72L1131.24 109.222H1132.22L1152.74 75.024H1206.48L1161.04 136.825L1209.41 204ZM1287.92 72.0927C1311.53 72.0927 1329.52 77.6295 1341.9 88.7032C1354.44 99.7769 1360.71 116.713 1360.71 139.512V147.817H1263.98C1263.98 157.1 1266.01 164.102 1270.08 168.825C1274.32 173.547 1280.91 175.909 1289.87 175.909C1298.01 175.909 1303.96 174.199 1307.7 170.779C1311.61 167.359 1313.57 162.799 1313.57 157.1H1360.71C1360.71 172.733 1354.77 184.947 1342.88 193.741C1330.99 202.534 1313.65 206.931 1290.85 206.931C1266.91 206.931 1248.34 201.394 1235.15 190.321C1221.96 179.084 1215.37 162.148 1215.37 139.512C1215.37 117.365 1221.8 100.591 1234.67 89.1918C1247.53 77.7924 1265.28 72.0927 1287.92 72.0927ZM1289.87 103.115C1274.56 103.115 1266.01 110.362 1264.22 124.856H1311.61C1311.61 118.179 1309.66 112.886 1305.75 108.978C1302 105.07 1296.71 103.115 1289.87 103.115ZM1385.87 204V26.9022H1434.48V204H1385.87Z" fill="black"/>
<path d="M119.694 82.3522L118.301 84.7719L118.321 84.7832L118.341 84.7941L119.694 82.3522ZM137.77 113.619V116.411H140.562V113.619H137.77ZM92.5794 113.619H89.7877V116.411H92.5794V113.619ZM86.2283 103.604L84.8725 106.044L84.9637 106.095L85.0584 106.139L86.2283 103.604ZM63.7552 116.062L62.9044 118.721H62.9044L63.7552 116.062ZM83.7856 120.214L83.3502 122.972L83.3704 122.975L83.3908 122.978L83.7856 120.214ZM112.365 126.077L111.569 128.753L111.595 128.76L111.621 128.768L112.365 126.077ZM132.396 137.802L130.422 139.776L130.436 139.79L130.451 139.804L132.396 137.802ZM122.381 196.428L121.006 193.998L120.999 194.002L120.992 194.006L122.381 196.428ZM42.0149 202.29L41.1579 204.947L41.1774 204.953L41.1969 204.959L42.0149 202.29ZM17.3434 187.389L15.3206 189.314L17.3434 187.389ZM7.81673 161.985V159.193H5.02504V161.985H7.81673ZM53.0072 161.985H55.7989V159.193H53.0072V161.985ZM53.0072 162.962H50.2155V163.003L50.2167 163.044L53.0072 162.962ZM59.8468 174.687L58.5618 177.166L58.6159 177.194L58.6712 177.219L59.8468 174.687ZM88.1825 161.252L89.0957 158.614L88.1825 161.252ZM67.4193 156.611L67.8858 153.859L67.8845 153.858L67.4193 156.611ZM38.8394 150.26L38.0101 152.926L38.0183 152.928L38.0265 152.931L38.8394 150.26ZM19.5418 138.779L17.5678 140.753L17.5825 140.768L17.5975 140.782L19.5418 138.779ZM29.0685 82.1079L27.7155 79.666L27.7084 79.6699L27.7014 79.6738L29.0685 82.1079ZM75.9688 74.8844C92.8667 74.8844 106.933 78.2313 118.301 84.7719L121.086 79.9324C108.678 72.7937 93.5949 69.301 75.9688 69.301V74.8844ZM118.341 84.7941C123.988 87.9232 128.109 91.8611 130.834 96.5737C133.561 101.29 134.978 106.938 134.978 113.619H140.562C140.562 106.132 138.966 99.4849 135.668 93.7792C132.367 88.0695 127.45 83.4579 121.047 79.9102L118.341 84.7941ZM137.77 110.827H92.5794V116.411H137.77V110.827ZM95.3711 113.619C95.3711 110.833 94.7423 108.275 93.3492 106.078C91.9547 103.879 89.9138 102.23 87.3982 101.069L85.0584 106.139C86.7769 106.932 87.9115 107.929 88.634 109.068C89.3579 110.21 89.7877 111.683 89.7877 113.619H95.3711ZM87.5841 101.164C84.1287 99.2439 79.9642 98.3695 75.236 98.3695V103.953C79.3016 103.953 82.4653 104.707 84.8725 106.044L87.5841 101.164ZM75.236 98.3695C69.2423 98.3695 64.3475 99.063 60.8532 100.713C59.0695 101.555 57.544 102.697 56.4669 104.223C55.3717 105.774 54.8567 107.56 54.8567 109.466H60.4401C60.4401 108.605 60.6579 107.968 61.0283 107.443C61.4168 106.892 62.0898 106.304 63.2374 105.762C65.6056 104.644 69.5046 103.953 75.236 103.953V98.3695ZM54.8567 109.466C54.8567 111.691 55.614 113.699 57.1266 115.333C58.5814 116.904 60.5947 117.982 62.9044 118.721L64.606 113.403C62.8445 112.839 61.8043 112.166 61.2235 111.539C60.7005 110.974 60.4401 110.336 60.4401 109.466H54.8567ZM62.9044 118.721C67.1943 120.093 74.0528 121.504 83.3502 122.972L84.221 117.457C74.9536 115.994 68.4585 114.636 64.606 113.403L62.9044 118.721ZM83.3908 122.978C94.708 124.595 104.09 126.525 111.569 128.753L113.162 123.401C105.333 121.069 95.6619 119.091 84.1804 117.451L83.3908 122.978ZM111.621 128.768C118.803 130.754 125.058 134.412 130.422 139.776L134.37 135.828C128.334 129.793 121.236 125.634 113.11 123.386L111.621 128.768ZM130.451 139.804C135.472 144.682 138.154 151.695 138.154 161.252H143.737C143.737 150.617 140.719 141.995 134.341 135.8L130.451 139.804ZM138.154 161.252C138.154 176.883 132.354 187.577 121.006 193.998L123.755 198.857C137.16 191.273 143.737 178.517 143.737 161.252H138.154ZM120.992 194.006C109.34 200.686 93.8289 204.14 74.2589 204.14V209.723C94.424 209.723 110.994 206.174 123.769 198.849L120.992 194.006ZM74.2589 204.14C63.1148 204.14 52.6442 202.628 42.8329 199.621L41.1969 204.959C51.5788 208.141 62.6043 209.723 74.2589 209.723V204.14ZM42.872 199.633C33.1513 196.498 25.3502 191.756 19.3661 185.465L15.3206 189.314C22.0387 196.376 30.6853 201.569 41.1579 204.947L42.872 199.633ZM19.3661 185.465C13.5663 179.368 10.6084 171.616 10.6084 161.985H5.02504C5.02504 172.873 8.41827 182.057 15.3206 189.314L19.3661 185.465ZM7.81673 164.777H53.0072V159.193H7.81673V164.777ZM50.2155 161.985V162.962H55.7989V161.985H50.2155ZM50.2167 163.044C50.4051 169.448 53.143 174.356 58.5618 177.166L61.1319 172.209C57.7568 170.459 55.935 167.55 55.7977 162.88L50.2167 163.044ZM58.6712 177.219C63.6009 179.508 68.8063 180.654 74.2589 180.654V175.071C69.6149 175.071 65.2123 174.1 61.0224 172.155L58.6712 177.219ZM74.2589 180.654C81.1473 180.654 86.7118 179.859 90.6521 178.008C92.6586 177.065 94.3528 175.798 95.5433 174.119C96.7525 172.415 97.3253 170.449 97.3253 168.336H91.7419C91.7419 169.398 91.4698 170.212 90.9895 170.889C90.4905 171.592 89.6503 172.31 88.2777 172.954C85.4598 174.279 80.8869 175.071 74.2589 175.071V180.654ZM97.3253 168.336C97.3253 166.04 96.5555 163.967 95.0244 162.259C93.5456 160.609 91.4861 159.442 89.0957 158.614L87.2693 163.89C89.1129 164.529 90.229 165.274 90.8672 165.986C91.4531 166.64 91.7419 167.375 91.7419 168.336H97.3253ZM89.0957 158.614C84.6279 157.068 77.5119 155.49 67.8858 153.859L66.9528 159.364C76.5428 160.989 83.2689 162.506 87.2693 163.89L89.0957 158.614ZM67.8845 153.858C56.3881 151.915 46.9882 149.822 39.6522 147.589L38.0265 152.931C45.6726 155.258 55.3259 157.398 66.9541 159.364L67.8845 153.858ZM39.6687 147.594C32.7614 145.445 26.7103 141.846 21.4862 136.776L17.5975 140.782C23.4471 146.46 30.261 150.515 38.0101 152.926L39.6687 147.594ZM21.5158 136.805C16.6253 131.915 14.0282 125.042 14.0282 115.818H8.44486C8.44486 126.135 11.3846 134.57 17.5678 140.753L21.5158 136.805ZM14.0282 115.818C14.0282 100.838 19.5831 90.6371 30.4355 84.5419L27.7014 79.6738C14.7779 86.9322 8.44486 99.204 8.44486 115.818H14.0282ZM30.4214 84.5498C41.9268 78.1752 57.0489 74.8844 75.9688 74.8844V69.301C56.4566 69.301 40.3117 72.687 27.7155 79.666L30.4214 84.5498ZM212.597 88.459H209.806V95.1987L214.571 90.433L212.597 88.459ZM230.918 76.4896L231.944 79.0858L231.97 79.0755L231.996 79.0648L230.918 76.4896ZM286.612 84.5506L284.539 86.4204L286.612 84.5506ZM297.849 204V206.792H300.64V204H297.849ZM249.238 204H246.447V206.792H249.238V204ZM244.841 113.131L242.672 114.887L242.718 114.944L242.766 114.998L244.841 113.131ZM212.597 204V206.792H215.389V204H212.597ZM163.987 204H161.195V206.792H163.987V204ZM163.987 26.9022V24.1105H161.195V26.9022H163.987ZM212.597 26.9022H215.389V24.1105H212.597V26.9022ZM214.571 90.433C219.507 85.4978 225.289 81.7169 231.944 79.0858L229.892 73.8935C222.542 76.7991 216.111 80.9978 210.623 86.485L214.571 90.433ZM231.996 79.0648C238.654 76.2776 245.616 74.8844 252.902 74.8844V69.301C244.882 69.301 237.187 70.839 229.84 73.9144L231.996 79.0648ZM252.902 74.8844C267.376 74.8844 277.74 78.8827 284.539 86.4204L288.685 82.6808C280.502 73.6079 268.393 69.301 252.902 69.301V74.8844ZM284.539 86.4204C291.412 94.04 295.057 105.241 295.057 120.459H300.64C300.64 104.409 296.795 91.6718 288.685 82.6808L284.539 86.4204ZM295.057 120.459V204H300.64V120.459H295.057ZM297.849 201.208H249.238V206.792H297.849V201.208ZM252.03 204V126.321H246.447V204H252.03ZM252.03 126.321C252.03 120.283 250.421 115.157 246.917 111.263L242.766 114.998C245.124 117.618 246.447 121.286 246.447 126.321H252.03ZM247.011 111.374C243.613 107.176 238.753 105.209 232.872 105.209V110.792C237.414 110.792 240.533 112.246 242.672 114.887L247.011 111.374ZM232.872 105.209C226.181 105.209 220.534 107.409 216.2 111.932L220.231 115.795C223.388 112.501 227.513 110.792 232.872 110.792V105.209ZM216.2 111.932C211.928 116.389 209.806 121.898 209.806 128.275H215.389C215.389 123.254 217.012 119.154 220.231 115.795L216.2 111.932ZM209.806 128.275V204H215.389V128.275H209.806ZM212.597 201.208H163.987V206.792H212.597V201.208ZM166.779 204V26.9022H161.195V204H166.779ZM163.987 29.6939H212.597V24.1105H163.987V29.6939ZM209.806 26.9022V88.459H215.389V26.9022H209.806ZM438.792 82.1079L437.467 84.5648L437.479 84.5716L437.492 84.5783L438.792 82.1079ZM459.311 171.267L461.569 169.625L459.311 171.267ZM473.967 173.954H476.759V171.163H473.967V173.954ZM473.967 202.046L475.516 204.369L476.759 203.54V202.046H473.967ZM470.059 203.756L470.942 206.404L471.002 206.384L471.061 206.361L470.059 203.756ZM461.51 205.71L461.031 202.96L460.974 202.97L460.916 202.982L461.51 205.71ZM425.113 202.779L423.892 205.289L423.932 205.309L423.973 205.327L425.113 202.779ZM412.655 190.809L415.199 189.66L413.729 186.405L410.925 188.618L412.655 190.809ZM391.892 202.534L390.893 199.927L391.892 202.534ZM329.602 142.199L331.552 144.197L331.552 144.197L329.602 142.199ZM358.915 128.52L358.388 125.778L358.915 128.52ZM408.747 124.856V127.647H411.538V124.856H408.747ZM403.373 107.024L401.681 109.244L401.705 109.263L401.731 109.281L403.373 107.024ZM376.747 105.802L375.542 103.284L375.52 103.294L375.498 103.305L376.747 105.802ZM371.373 115.329V118.121H374.165V115.329H371.373ZM323.495 115.329L320.758 115.876L321.207 118.121H323.495V115.329ZM340.594 82.8407L339.139 80.4586L339.131 80.4632L339.124 80.4677L340.594 82.8407ZM408.747 147.817H411.538V145.026H408.747V147.817ZM377.968 152.458L379.114 155.004L379.128 154.998L379.142 154.991L377.968 152.458ZM401.418 171.512L399.817 169.225L399.799 169.238L399.781 169.251L401.418 171.512ZM390.67 74.8844C410.088 74.8844 425.628 78.1782 437.467 84.5648L440.118 79.6509C427.203 72.684 410.662 69.301 390.67 69.301V74.8844ZM437.492 84.5783C443.279 87.6244 447.504 91.5738 450.301 96.3942C453.103 101.223 454.565 107.091 454.565 114.108H460.149C460.149 106.305 458.517 99.4296 455.13 93.5924C451.739 87.7461 446.681 83.1054 440.092 79.6375L437.492 84.5783ZM454.565 114.108V164.428H460.149V114.108H454.565ZM454.565 164.428C454.565 167.637 455.325 170.533 457.053 172.909L461.569 169.625C460.692 168.419 460.149 166.755 460.149 164.428H454.565ZM457.053 172.909C458.979 175.557 461.854 176.746 465.174 176.746V171.163C463.282 171.163 462.249 170.561 461.569 169.625L457.053 172.909ZM465.174 176.746H473.967V171.163H465.174V176.746ZM471.176 173.954V202.046H476.759V173.954H471.176ZM472.419 199.723C472.437 199.711 472.381 199.748 472.2 199.839C472.032 199.923 471.803 200.029 471.505 200.16C470.908 200.421 470.096 200.75 469.057 201.15L471.061 206.361C472.139 205.947 473.037 205.584 473.743 205.275C474.393 204.991 475.046 204.682 475.516 204.369L472.419 199.723ZM469.176 201.107C467.421 201.692 464.734 202.316 461.031 202.96L461.988 208.46C465.777 207.801 468.788 207.122 470.942 206.404L469.176 201.107ZM460.916 202.982C457.41 203.744 453.301 204.14 448.563 204.14V209.723C453.596 209.723 458.118 209.304 462.103 208.438L460.916 202.982ZM448.563 204.14C439.366 204.14 431.971 202.788 426.253 200.23L423.973 205.327C430.632 208.306 438.869 209.723 448.563 209.723V204.14ZM426.334 200.268C420.767 197.56 417.157 193.996 415.199 189.66L410.111 191.958C412.712 197.719 417.408 202.135 423.892 205.289L426.334 200.268ZM410.925 188.618C404.967 193.322 398.294 197.093 390.893 199.927L392.89 205.141C400.797 202.113 407.967 198.067 414.385 193L410.925 188.618ZM390.893 199.927C383.627 202.71 375.023 204.14 365.022 204.14V209.723C375.54 209.723 384.849 208.221 392.89 205.141L390.893 199.927ZM365.022 204.14C350.173 204.14 339.552 201.173 332.684 195.709C325.938 190.341 322.379 182.208 322.379 170.779H316.795C316.795 183.451 320.809 193.395 329.207 200.078C337.485 206.664 349.581 209.723 365.022 209.723V204.14ZM322.379 170.779C322.379 158.724 325.579 150.024 331.552 144.197L327.653 140.201C320.272 147.402 316.795 157.755 316.795 170.779H322.379ZM331.552 144.197C337.885 138.015 347.092 133.636 359.442 131.261L358.388 125.778C345.333 128.289 334.999 133.03 327.652 140.201L331.552 144.197ZM359.442 131.261C371.9 128.865 388.315 127.647 408.747 127.647V122.064C388.141 122.064 371.334 123.289 358.388 125.778L359.442 131.261ZM411.538 124.856V118.505H405.955V124.856H411.538ZM411.538 118.505C411.538 112.706 409.428 107.976 405.015 104.766L401.731 109.281C404.482 111.283 405.955 114.206 405.955 118.505H411.538ZM405.064 104.803C401.034 101.732 395.909 100.324 389.938 100.324V105.907C395.04 105.907 398.871 107.104 401.681 109.244L405.064 104.803ZM389.938 100.324C384.561 100.324 379.736 101.278 375.542 103.284L377.951 108.321C381.248 106.744 385.218 105.907 389.938 105.907V100.324ZM375.498 103.305C373.337 104.386 371.568 105.864 370.353 107.798C369.135 109.735 368.581 111.958 368.581 114.352H374.165C374.165 112.837 374.507 111.681 375.08 110.769C375.656 109.853 376.574 109.01 377.995 108.299L375.498 103.305ZM368.581 114.352V115.329H374.165V114.352H368.581ZM371.373 112.537H323.495V118.121H371.373V112.537ZM326.233 114.781C326.123 114.234 326.043 113.308 326.043 111.909H320.459C320.459 113.442 320.542 114.795 320.758 115.876L326.233 114.781ZM326.043 111.909C326.043 100.786 331.213 91.939 342.065 85.2137L339.124 80.4677C326.852 88.0731 320.459 98.6051 320.459 111.909H326.043ZM342.05 85.2228C353.153 78.4378 369.255 74.8844 390.67 74.8844V69.301C368.768 69.301 351.486 72.9129 339.139 80.4586L342.05 85.2228ZM408.747 145.026C394.795 145.026 384.036 146.57 376.794 149.926L379.142 154.991C385.254 152.159 395.014 150.609 408.747 150.609V145.026ZM376.823 149.913C369.791 153.077 365.406 157.833 365.406 164.428H370.989C370.989 160.926 373.117 157.703 379.114 155.004L376.823 149.913ZM365.406 164.428C365.406 169.201 367.075 173.174 370.696 175.837C374.157 178.382 379.011 179.433 384.808 179.433V173.85C379.531 173.85 376.079 172.865 374.004 171.339C372.088 169.931 370.989 167.797 370.989 164.428H365.406ZM384.808 179.433C391.692 179.433 397.814 177.569 403.056 173.773L399.781 169.251C395.578 172.294 390.626 173.85 384.808 173.85V179.433ZM403.019 173.799C408.496 169.965 411.538 164.943 411.538 158.81H405.955C405.955 162.773 404.111 166.219 399.817 169.225L403.019 173.799ZM411.538 158.81V147.817H405.955V158.81H411.538ZM583.644 204L580.921 204.617L581.414 206.792H583.644V204ZM579.491 185.68L582.214 185.062L580.776 178.719L577.169 184.131L579.491 185.68ZM498.148 189.832L495.999 191.613L498.148 189.832ZM498.148 89.1918L500.285 90.9881L500.292 90.9805L500.298 90.9729L498.148 89.1918ZM574.606 86.9933L572.566 88.8993L577.398 94.0699V86.9933H574.606ZM574.606 26.9022V24.1105H571.814V26.9022H574.606ZM623.216 26.9022H626.008V24.1105H623.216V26.9022ZM623.216 204V206.792H626.008V204H623.216ZM569.72 163.451L571.997 165.066L569.72 163.451ZM569.72 115.818L567.42 117.399L567.432 117.416L567.444 117.433L569.72 115.818ZM586.367 203.383L582.214 185.062L576.769 186.297L580.921 204.617L586.367 203.383ZM577.169 184.131C568.272 197.475 555.491 204.14 538.453 204.14V209.723C557.242 209.723 571.82 202.22 581.814 187.228L577.169 184.131ZM538.453 204.14C521.696 204.14 509.117 198.694 500.298 188.051L495.999 191.613C506.071 203.769 520.361 209.723 538.453 209.723V204.14ZM500.298 188.051C491.433 177.352 486.772 161.244 486.772 139.268H481.189C481.189 161.912 485.974 179.514 495.999 191.613L500.298 188.051ZM486.772 139.268C486.772 117.456 491.432 101.521 500.285 90.9881L496.012 87.3955C485.975 99.336 481.189 116.785 481.189 139.268H486.772ZM500.298 90.9729C509.117 80.3297 521.696 74.8844 538.453 74.8844V69.301C520.361 69.301 506.071 75.2551 495.999 87.4106L500.298 90.9729ZM538.453 74.8844C552.577 74.8844 563.862 79.5848 572.566 88.8993L576.646 85.0873C566.785 74.5344 553.968 69.301 538.453 69.301V74.8844ZM577.398 86.9933V26.9022H571.814V86.9933H577.398ZM574.606 29.6939H623.216V24.1105H574.606V29.6939ZM620.424 26.9022V204H626.008V26.9022H620.424ZM623.216 201.208H583.644V206.792H623.216V201.208ZM553.598 105.209C546.02 105.209 539.874 107.502 535.7 112.502C531.606 117.404 529.799 124.454 529.799 133.161H535.383C535.383 125.094 537.077 119.564 539.986 116.08C542.814 112.693 547.172 110.792 553.598 110.792V105.209ZM529.799 133.161V146.107H535.383V133.161H529.799ZM529.799 146.107C529.799 154.738 531.608 161.731 535.708 166.594C539.885 171.548 546.029 173.815 553.598 173.815V168.231C547.163 168.231 542.803 166.346 539.977 162.995C537.075 159.552 535.383 154.088 535.383 146.107H529.799ZM553.598 173.815C561.505 173.815 567.803 170.976 571.997 165.066L567.444 161.835C564.473 166.022 560.023 168.231 553.598 168.231V173.815ZM571.997 165.066C576.006 159.417 577.886 152.205 577.886 143.665H572.303C572.303 151.409 570.6 157.388 567.444 161.835L571.997 165.066ZM577.886 143.665V135.604H572.303V143.665H577.886ZM577.886 135.604C577.886 127.063 576.006 119.851 571.997 114.202L567.444 117.433C570.6 121.881 572.303 127.859 572.303 135.604H577.886ZM572.021 114.236C567.842 108.157 561.541 105.209 553.598 105.209V110.792C559.987 110.792 564.434 113.056 567.42 117.399L572.021 114.236ZM764.648 82.1079L763.323 84.5648L763.335 84.5716L763.348 84.5783L764.648 82.1079ZM785.167 171.267L787.425 169.625L785.167 171.267ZM799.823 173.954H802.615V171.163H799.823V173.954ZM799.823 202.046L801.372 204.369L802.615 203.54V202.046H799.823ZM795.915 203.756L796.798 206.404L796.858 206.384L796.917 206.361L795.915 203.756ZM787.366 205.71L786.887 202.96L786.83 202.97L786.772 202.982L787.366 205.71ZM750.969 202.779L749.748 205.289L749.788 205.309L749.829 205.327L750.969 202.779ZM738.511 190.809L741.055 189.66L739.585 186.405L736.781 188.618L738.511 190.809ZM717.748 202.534L716.749 199.927L717.748 202.534ZM655.458 142.199L657.408 144.197L657.408 144.197L655.458 142.199ZM684.771 128.52L684.244 125.778L684.771 128.52ZM734.603 124.856V127.647H737.394V124.856H734.603ZM729.229 107.024L727.537 109.244L727.561 109.263L727.587 109.281L729.229 107.024ZM702.603 105.802L701.398 103.284L701.376 103.294L701.354 103.305L702.603 105.802ZM697.229 115.329V118.121H700.021V115.329H697.229ZM649.351 115.329L646.614 115.876L647.063 118.121H649.351V115.329ZM666.451 82.8407L664.995 80.4586L664.987 80.4632L664.98 80.4677L666.451 82.8407ZM734.603 147.817H737.394V145.026H734.603V147.817ZM703.824 152.458L704.97 155.004L704.984 154.998L704.998 154.991L703.824 152.458ZM727.274 171.512L725.674 169.225L725.655 169.238L725.637 169.251L727.274 171.512ZM716.526 74.8844C735.944 74.8844 751.484 78.1782 763.323 84.5648L765.974 79.6509C753.059 72.684 736.518 69.301 716.526 69.301V74.8844ZM763.348 84.5783C769.135 87.6244 773.36 91.5738 776.157 96.3942C778.959 101.223 780.421 107.091 780.421 114.108H786.005C786.005 106.305 784.373 99.4296 780.986 93.5924C777.595 87.7461 772.537 83.1054 765.948 79.6375L763.348 84.5783ZM780.421 114.108V164.428H786.005V114.108H780.421ZM780.421 164.428C780.421 167.637 781.181 170.533 782.909 172.909L787.425 169.625C786.548 168.419 786.005 166.755 786.005 164.428H780.421ZM782.909 172.909C784.835 175.557 787.71 176.746 791.03 176.746V171.163C789.138 171.163 788.105 170.561 787.425 169.625L782.909 172.909ZM791.03 176.746H799.823V171.163H791.03V176.746ZM797.032 173.954V202.046H802.615V173.954H797.032ZM798.275 199.723C798.293 199.711 798.237 199.748 798.056 199.839C797.888 199.923 797.659 200.029 797.361 200.16C796.764 200.421 795.952 200.75 794.913 201.15L796.917 206.361C797.995 205.947 798.893 205.584 799.599 205.275C800.249 204.991 800.902 204.682 801.372 204.369L798.275 199.723ZM795.032 201.107C793.277 201.692 790.59 202.316 786.887 202.96L787.844 208.46C791.633 207.801 794.645 207.122 796.798 206.404L795.032 201.107ZM786.772 202.982C783.266 203.744 779.157 204.14 774.419 204.14V209.723C779.452 209.723 783.974 209.304 787.959 208.438L786.772 202.982ZM774.419 204.14C765.222 204.14 757.827 202.788 752.109 200.23L749.829 205.327C756.488 208.306 764.725 209.723 774.419 209.723V204.14ZM752.19 200.268C746.623 197.56 743.013 193.996 741.055 189.66L735.967 191.958C738.568 197.719 743.264 202.135 749.748 205.289L752.19 200.268ZM736.781 188.618C730.823 193.322 724.15 197.093 716.749 199.927L718.746 205.141C726.653 202.113 733.823 198.067 740.241 193L736.781 188.618ZM716.749 199.927C709.483 202.71 700.879 204.14 690.878 204.14V209.723C701.396 209.723 710.705 208.221 718.746 205.141L716.749 199.927ZM690.878 204.14C676.029 204.14 665.408 201.173 658.54 195.709C651.794 190.341 648.235 182.208 648.235 170.779H642.651C642.651 183.451 646.665 193.395 655.064 200.078C663.341 206.664 675.437 209.723 690.878 209.723V204.14ZM648.235 170.779C648.235 158.724 651.435 150.024 657.408 144.197L653.509 140.201C646.128 147.402 642.651 157.755 642.651 170.779H648.235ZM657.408 144.197C663.741 138.015 672.948 133.636 685.298 131.261L684.244 125.778C671.189 128.289 660.855 133.03 653.508 140.201L657.408 144.197ZM685.298 131.261C697.756 128.865 714.171 127.647 734.603 127.647V122.064C713.997 122.064 697.19 123.289 684.244 125.778L685.298 131.261ZM737.394 124.856V118.505H731.811V124.856H737.394ZM737.394 118.505C737.394 112.706 735.284 107.976 730.871 104.766L727.587 109.281C730.338 111.283 731.811 114.206 731.811 118.505H737.394ZM730.92 104.803C726.89 101.732 721.765 100.324 715.794 100.324V105.907C720.896 105.907 724.727 107.104 727.537 109.244L730.92 104.803ZM715.794 100.324C710.417 100.324 705.592 101.278 701.398 103.284L703.807 108.321C707.104 106.744 711.074 105.907 715.794 105.907V100.324ZM701.354 103.305C699.193 104.386 697.424 105.864 696.209 107.798C694.991 109.735 694.437 111.958 694.437 114.352H700.021C700.021 112.837 700.363 111.681 700.936 110.769C701.512 109.853 702.43 109.01 703.851 108.299L701.354 103.305ZM694.437 114.352V115.329H700.021V114.352H694.437ZM697.229 112.537H649.351V118.121H697.229V112.537ZM652.089 114.781C651.979 114.234 651.899 113.308 651.899 111.909H646.315C646.315 113.442 646.398 114.795 646.614 115.876L652.089 114.781ZM651.899 111.909C651.899 100.786 657.069 91.939 667.921 85.2137L664.98 80.4677C652.708 88.0731 646.315 98.6051 646.315 111.909H651.899ZM667.906 85.2228C679.009 78.4378 695.111 74.8844 716.526 74.8844V69.301C694.624 69.301 677.342 72.9129 664.995 80.4586L667.906 85.2228ZM734.603 145.026C720.651 145.026 709.892 146.57 702.65 149.926L704.998 154.991C711.11 152.159 720.87 150.609 734.603 150.609V145.026ZM702.679 149.913C695.647 153.077 691.262 157.833 691.262 164.428H696.845C696.845 160.926 698.973 157.703 704.97 155.004L702.679 149.913ZM691.262 164.428C691.262 169.201 692.931 173.174 696.552 175.837C700.013 178.382 704.867 179.433 710.664 179.433V173.85C705.387 173.85 701.935 172.865 699.86 171.339C697.944 169.931 696.845 167.797 696.845 164.428H691.262ZM710.664 179.433C717.548 179.433 723.67 177.569 728.912 173.773L725.637 169.251C721.434 172.294 716.482 173.85 710.664 173.85V179.433ZM728.875 173.799C734.352 169.965 737.394 164.943 737.394 158.81H731.811C731.811 162.773 729.967 166.219 725.674 169.225L728.875 173.799ZM737.394 158.81V147.817H731.811V158.81H737.394ZM943.397 89.1918L941.247 90.9729L943.397 89.1918ZM943.397 190.076L945.534 191.873L945.54 191.865L945.546 191.858L943.397 190.076ZM866.939 192.275L868.98 190.37L864.148 185.192V192.275H866.939ZM866.939 252.122V254.913H869.731V252.122H866.939ZM818.329 252.122H815.537V254.913H818.329V252.122ZM818.329 75.024V72.2323H815.537V75.024H818.329ZM857.901 75.024L860.624 74.4069L860.131 72.2323H857.901V75.024ZM862.054 93.3444L859.331 93.9616L860.769 100.305L864.377 94.893L862.054 93.3444ZM871.825 115.573L869.548 113.958L871.825 115.573ZM871.825 163.451L869.524 165.032L869.536 165.049L869.548 165.066L871.825 163.451ZM903.092 74.8844C919.849 74.8844 932.428 80.3297 941.247 90.9729L945.546 87.4106C935.475 75.2551 921.184 69.301 903.092 69.301V74.8844ZM941.247 90.9729C950.112 101.672 954.773 117.78 954.773 139.756H960.356C960.356 117.112 955.572 99.51 945.546 87.4106L941.247 90.9729ZM954.773 139.756C954.773 161.564 950.115 177.593 941.247 188.295L945.546 191.858C955.569 179.761 960.356 162.243 960.356 139.756H954.773ZM941.26 188.28C932.446 198.766 919.863 204.14 903.092 204.14V209.723C921.17 209.723 935.457 203.86 945.534 191.873L941.26 188.28ZM903.092 204.14C888.78 204.14 877.505 199.504 868.98 190.37L864.898 194.18C874.613 204.588 887.439 209.723 903.092 209.723V204.14ZM864.148 192.275V252.122H869.731V192.275H864.148ZM866.939 249.33H818.329V254.913H866.939V249.33ZM821.121 252.122V75.024H815.537V252.122H821.121ZM818.329 77.8157H857.901V72.2323H818.329V77.8157ZM855.179 75.6411L859.331 93.9616L864.776 92.7273L860.624 74.4069L855.179 75.6411ZM864.377 94.893C873.273 81.5489 886.054 74.8844 903.092 74.8844V69.301C884.303 69.301 869.725 76.8044 859.731 91.7959L864.377 94.893ZM887.947 105.209C880.04 105.209 873.742 108.048 869.548 113.958L874.101 117.189C877.073 113.002 881.522 110.792 887.947 110.792V105.209ZM869.548 113.958C865.539 119.607 863.659 126.819 863.659 135.359H869.242C869.242 127.615 870.945 121.636 874.101 117.189L869.548 113.958ZM863.659 135.359V143.42H869.242V135.359H863.659ZM863.659 143.42C863.659 151.966 865.541 159.238 869.524 165.032L874.125 161.869C870.943 157.241 869.242 151.16 869.242 143.42H863.659ZM869.548 165.066C873.742 170.976 880.04 173.815 887.947 173.815V168.231C881.522 168.231 877.073 166.022 874.101 161.835L869.548 165.066ZM887.947 173.815C895.525 173.815 901.671 171.522 905.845 166.522C909.939 161.62 911.746 154.57 911.746 145.863H906.163C906.163 153.93 904.468 159.46 901.559 162.944C898.731 166.331 894.373 168.231 887.947 168.231V173.815ZM911.746 145.863V132.917H906.163V145.863H911.746ZM911.746 132.917C911.746 124.286 909.937 117.293 905.837 112.43C901.66 107.476 895.516 105.209 887.947 105.209V110.792C894.382 110.792 898.743 112.678 901.568 116.029C904.47 119.472 906.163 124.936 906.163 132.917H911.746ZM982.723 59.8791H979.931V62.6707H982.723V59.8791ZM982.723 26.9022V24.1105H979.931V26.9022H982.723ZM1031.33 26.9022H1034.12V24.1105H1031.33V26.9022ZM1031.33 59.8791V62.6707H1034.12V59.8791H1031.33ZM982.723 204H979.931V206.792H982.723V204ZM982.723 75.024V72.2323H979.931V75.024H982.723ZM1031.33 75.024H1034.12V72.2323H1031.33V75.024ZM1031.33 204V206.792H1034.12V204H1031.33ZM985.514 59.8791V26.9022H979.931V59.8791H985.514ZM982.723 29.6939H1031.33V24.1105H982.723V29.6939ZM1028.54 26.9022V59.8791H1034.12V26.9022H1028.54ZM1031.33 57.0874H982.723V62.6707H1031.33V57.0874ZM985.514 204V75.024H979.931V204H985.514ZM982.723 77.8157H1031.33V72.2323H982.723V77.8157ZM1028.54 75.024V204H1034.12V75.024H1028.54ZM1031.33 201.208H982.723V206.792H1031.33V201.208ZM1209.41 204V206.792H1214.86L1211.68 202.369L1209.41 204ZM1152.74 204L1150.35 205.441L1151.16 206.792H1152.74V204ZM1128.31 163.451L1130.7 162.01L1129.89 160.659H1128.31V163.451ZM1127.33 163.451V160.659H1125.76L1124.95 162L1127.33 163.451ZM1102.66 204V206.792H1104.23L1105.05 205.451L1102.66 204ZM1048.68 204L1046.42 202.361L1043.21 206.792H1048.68V204ZM1098.27 135.604L1100.53 137.242L1101.72 135.589L1100.51 133.946L1098.27 135.604ZM1053.56 75.024V72.2323H1048.03L1051.32 76.6815L1053.56 75.024ZM1110.72 75.024L1113.12 73.5877L1112.3 72.2323H1110.72V75.024ZM1131.24 109.222L1128.85 110.658L1129.66 112.014H1131.24V109.222ZM1132.22 109.222V112.014H1133.8L1134.61 110.658L1132.22 109.222ZM1152.74 75.024V72.2323H1151.16L1150.34 73.5877L1152.74 75.024ZM1206.48 75.024L1208.73 76.6776L1212 72.2323H1206.48V75.024ZM1161.04 136.825L1158.79 135.171L1157.59 136.808L1158.78 138.456L1161.04 136.825ZM1209.41 201.208H1152.74V206.792H1209.41V201.208ZM1155.13 202.559L1130.7 162.01L1125.92 164.891L1150.35 205.441L1155.13 202.559ZM1128.31 160.659H1127.33V166.242H1128.31V160.659ZM1124.95 162L1100.28 202.549L1105.05 205.451L1129.72 164.902L1124.95 162ZM1102.66 201.208H1048.68V206.792H1102.66V201.208ZM1050.94 205.639L1100.53 137.242L1096.01 133.965L1046.42 202.361L1050.94 205.639ZM1100.51 133.946L1055.81 73.3664L1051.32 76.6815L1096.02 137.261L1100.51 133.946ZM1053.56 77.8157H1110.72V72.2323H1053.56V77.8157ZM1108.33 76.4603L1128.85 110.658L1133.64 107.786L1113.12 73.5877L1108.33 76.4603ZM1131.24 112.014H1132.22V106.43H1131.24V112.014ZM1134.61 110.658L1155.13 76.4603L1150.34 73.5877L1129.83 107.786L1134.61 110.658ZM1152.74 77.8157H1206.48V72.2323H1152.74V77.8157ZM1204.23 73.3704L1158.79 135.171L1163.29 138.479L1208.73 76.6776L1204.23 73.3704ZM1158.78 138.456L1207.14 205.631L1211.68 202.369L1163.31 135.194L1158.78 138.456ZM1341.9 88.7032L1340.04 90.7837L1340.05 90.7898L1340.05 90.7958L1341.9 88.7032ZM1360.71 147.817V150.609H1363.5V147.817H1360.71ZM1263.98 147.817V145.026H1261.19V147.817H1263.98ZM1270.08 168.825L1267.97 170.648L1267.99 170.668L1268.01 170.688L1270.08 168.825ZM1307.7 170.779L1305.86 168.678L1305.84 168.697L1305.82 168.717L1307.7 170.779ZM1313.57 157.1V154.308H1310.77V157.1H1313.57ZM1360.71 157.1H1363.5V154.308H1360.71V157.1ZM1342.88 193.741L1341.22 191.496L1342.88 193.741ZM1235.15 190.321L1233.34 192.446L1233.35 192.452L1233.36 192.459L1235.15 190.321ZM1234.67 89.1918L1232.81 87.1023L1234.67 89.1918ZM1264.22 124.856L1261.45 124.513L1261.06 127.647H1264.22V124.856ZM1311.61 124.856V127.647H1314.4V124.856H1311.61ZM1305.75 108.978L1303.73 110.909L1303.75 110.931L1303.77 110.952L1305.75 108.978ZM1287.92 74.8844C1311.13 74.8844 1328.35 80.3291 1340.04 90.7837L1343.76 86.6228C1330.69 74.93 1311.93 69.301 1287.92 69.301V74.8844ZM1340.05 90.7958C1351.8 101.167 1357.92 117.21 1357.92 139.512H1363.5C1363.5 116.216 1357.08 98.3868 1343.75 86.6107L1340.05 90.7958ZM1357.92 139.512V147.817H1363.5V139.512H1357.92ZM1360.71 145.026H1263.98V150.609H1360.71V145.026ZM1261.19 147.817C1261.19 157.451 1263.29 165.221 1267.97 170.648L1272.2 167.002C1268.74 162.984 1266.77 156.748 1266.77 147.817H1261.19ZM1268.01 170.688C1272.96 176.213 1280.46 178.7 1289.87 178.7V173.117C1281.37 173.117 1275.68 170.882 1272.16 166.961L1268.01 170.688ZM1289.87 178.7C1298.31 178.7 1305.09 176.944 1309.59 172.841L1305.82 168.717C1302.82 171.454 1297.72 173.117 1289.87 173.117V178.7ZM1309.54 172.88C1314.12 168.874 1316.36 163.516 1316.36 157.1H1310.77C1310.77 162.083 1309.1 165.844 1305.86 168.678L1309.54 172.88ZM1313.57 159.891H1360.71V154.308H1313.57V159.891ZM1357.92 157.1C1357.92 171.907 1352.35 183.263 1341.22 191.496L1344.54 195.985C1357.18 186.63 1363.5 173.559 1363.5 157.1H1357.92ZM1341.22 191.496C1330.01 199.789 1313.35 204.14 1290.85 204.14V209.723C1313.94 209.723 1331.97 205.28 1344.54 195.985L1341.22 191.496ZM1290.85 204.14C1267.31 204.14 1249.47 198.695 1236.95 188.183L1233.36 192.459C1247.22 204.093 1266.51 209.723 1290.85 209.723V204.14ZM1236.96 188.196C1224.57 177.641 1218.16 161.598 1218.16 139.512H1212.58C1212.58 162.698 1219.35 180.527 1233.34 192.446L1236.96 188.196ZM1218.16 139.512C1218.16 117.918 1224.41 102.007 1236.52 91.2812L1232.81 87.1023C1219.19 99.1752 1212.58 116.811 1212.58 139.512H1218.16ZM1236.52 91.2812C1248.73 80.4617 1265.74 74.8844 1287.92 74.8844V69.301C1264.82 69.301 1246.33 75.1231 1232.81 87.1023L1236.52 91.2812ZM1289.87 100.324C1281.8 100.324 1275.11 102.236 1270.17 106.421C1265.22 110.621 1262.41 116.788 1261.45 124.513L1266.99 125.198C1267.83 118.43 1270.19 113.726 1273.78 110.68C1277.4 107.618 1282.64 105.907 1289.87 105.907V100.324ZM1264.22 127.647H1311.61V122.064H1264.22V127.647ZM1314.4 124.856C1314.4 117.603 1312.26 111.542 1307.72 107.004L1303.77 110.952C1307.05 114.231 1308.82 118.755 1308.82 124.856H1314.4ZM1307.76 107.046C1303.36 102.452 1297.26 100.324 1289.87 100.324V105.907C1296.16 105.907 1300.64 107.687 1303.73 110.909L1307.76 107.046ZM1385.87 204H1383.08V206.792H1385.87V204ZM1385.87 26.9022V24.1105H1383.08V26.9022H1385.87ZM1434.48 26.9022H1437.27V24.1105H1434.48V26.9022ZM1434.48 204V206.792H1437.27V204H1434.48ZM1388.66 204V26.9022H1383.08V204H1388.66ZM1385.87 29.6939H1434.48V24.1105H1385.87V29.6939ZM1431.69 26.9022V204H1437.27V26.9022H1431.69ZM1434.48 201.208H1385.87V206.792H1434.48V201.208Z" fill="#0db8a6" mask="url(#path-1-outside-1_12_214)"/>
<mask id="mask0_12_214" style="mask-type:alpha" maskUnits="userSpaceOnUse" x="7" y="26" width="1428" height="227">
<path d="M75.9688 72.0927C93.2308 72.0927 107.806 75.5125 119.694 82.3522C131.744 89.0289 137.77 99.4513 137.77 113.619H92.5794C92.5794 108.896 90.4624 105.558 86.2283 103.604C83.297 101.975 79.6329 101.161 75.236 101.161C63.5109 101.161 57.6484 103.93 57.6484 109.466C57.6484 112.561 59.684 114.759 63.7552 116.062C67.8264 117.365 74.5032 118.749 83.7856 120.214C95.185 121.843 104.712 123.797 112.365 126.077C120.019 128.194 126.696 132.102 132.396 137.802C138.096 143.339 140.945 151.156 140.945 161.252C140.945 177.7 134.757 189.425 122.381 196.428C110.167 203.43 94.1264 206.931 74.2589 206.931C62.8595 206.931 52.1115 205.384 42.0149 202.29C31.9183 199.033 23.6945 194.066 17.3434 187.389C10.9923 180.713 7.81673 172.245 7.81673 161.985H53.0072V162.962C53.17 168.499 55.4499 172.407 59.8468 174.687C64.4066 176.804 69.2106 177.863 74.2589 177.863C87.7754 177.863 94.5336 174.687 94.5336 168.336C94.5336 165.079 92.4165 162.718 88.1825 161.252C83.9484 159.787 77.0273 158.24 67.4193 156.611C55.857 154.657 46.3304 152.54 38.8394 150.26C31.5112 147.98 25.0787 144.153 19.5418 138.779C14.005 133.242 11.2365 125.588 11.2365 115.818C11.2365 100.021 17.1805 88.7847 29.0685 82.1079C41.1192 75.4311 56.7527 72.0927 75.9688 72.0927ZM212.597 88.459C217.809 83.2478 223.915 79.258 230.918 76.4896C237.92 73.5583 245.249 72.0927 252.902 72.0927C267.885 72.0927 279.121 76.2453 286.612 84.5506C294.103 92.8559 297.849 104.825 297.849 120.459V204H249.238V126.321C249.238 120.784 247.773 116.387 244.841 113.131C242.073 109.711 238.083 108.001 232.872 108.001C226.847 108.001 221.961 109.955 218.216 113.863C214.47 117.772 212.597 122.576 212.597 128.275V204H163.987V26.9022H212.597V88.459ZM390.67 72.0927C410.375 72.0927 426.416 75.4311 438.792 82.1079C451.169 88.6218 457.357 99.2884 457.357 114.108V164.428C457.357 167.196 458.008 169.476 459.311 171.267C460.614 173.059 462.568 173.954 465.174 173.954H473.967V202.046C473.479 202.372 472.176 202.941 470.059 203.756C468.105 204.407 465.255 205.059 461.51 205.71C457.764 206.524 453.449 206.931 448.563 206.931C439.118 206.931 431.301 205.547 425.113 202.779C419.087 199.847 414.935 195.858 412.655 190.809C406.467 195.695 399.546 199.603 391.892 202.534C384.238 205.466 375.281 206.931 365.022 206.931C334.732 206.931 319.587 194.88 319.587 170.779C319.587 158.24 322.925 148.713 329.602 142.199C336.442 135.522 346.213 130.962 358.915 128.52C371.617 126.077 388.228 124.856 408.747 124.856V118.505C408.747 113.456 406.955 109.629 403.373 107.024C399.953 104.418 395.474 103.115 389.938 103.115C384.889 103.115 380.492 104.011 376.747 105.802C373.164 107.594 371.373 110.444 371.373 114.352V115.329H323.495C323.333 114.515 323.251 113.375 323.251 111.909C323.251 99.6955 329.032 90.006 340.594 82.8407C352.32 75.6754 369.012 72.0927 390.67 72.0927ZM408.747 147.817C394.904 147.817 384.645 149.364 377.968 152.458C371.454 155.39 368.197 159.38 368.197 164.428C368.197 172.57 373.734 176.641 384.808 176.641C391.159 176.641 396.696 174.932 401.418 171.512C406.304 168.092 408.747 163.858 408.747 158.81V147.817ZM583.644 204L579.491 185.68C570.046 199.847 556.367 206.931 538.454 206.931C521.029 206.931 507.594 201.232 498.149 189.832C488.703 178.433 483.981 161.578 483.981 139.268C483.981 117.12 488.703 100.428 498.149 89.1918C507.594 77.7924 521.029 72.0927 538.454 72.0927C553.273 72.0927 565.324 77.0596 574.606 86.9933V26.9022H623.216V204H583.644ZM553.598 108.001C539.593 108.001 532.591 116.387 532.591 133.161V146.107C532.591 162.718 539.593 171.023 553.598 171.023C560.764 171.023 566.138 168.499 569.72 163.451C573.303 158.402 575.094 151.807 575.094 143.665V135.604C575.094 127.461 573.303 120.866 569.72 115.818C566.138 110.606 560.764 108.001 553.598 108.001ZM716.526 72.0927C736.231 72.0927 752.272 75.4311 764.648 82.1079C777.025 88.6218 783.213 99.2884 783.213 114.108V164.428C783.213 167.196 783.864 169.476 785.167 171.267C786.47 173.059 788.424 173.954 791.03 173.954H799.823V202.046C799.335 202.372 798.032 202.941 795.915 203.756C793.961 204.407 791.111 205.059 787.366 205.71C783.62 206.524 779.305 206.931 774.419 206.931C764.974 206.931 757.157 205.547 750.969 202.779C744.943 199.847 740.791 195.858 738.511 190.809C732.323 195.695 725.402 199.603 717.748 202.534C710.094 205.466 701.137 206.931 690.878 206.931C660.588 206.931 645.443 194.88 645.443 170.779C645.443 158.24 648.781 148.713 655.458 142.199C662.298 135.522 672.069 130.962 684.771 128.52C697.473 126.077 714.084 124.856 734.603 124.856V118.505C734.603 113.456 732.811 109.629 729.229 107.024C725.809 104.418 721.33 103.115 715.794 103.115C710.745 103.115 706.348 104.011 702.603 105.802C699.02 107.594 697.229 110.444 697.229 114.352V115.329H649.351C649.189 114.515 649.107 113.375 649.107 111.909C649.107 99.6955 654.888 90.006 666.451 82.8407C678.176 75.6754 694.868 72.0927 716.526 72.0927ZM734.603 147.817C720.76 147.817 710.501 149.364 703.824 152.458C697.31 155.39 694.053 159.38 694.053 164.428C694.053 172.57 699.59 176.641 710.664 176.641C717.015 176.641 722.552 174.932 727.274 171.512C732.16 168.092 734.603 163.858 734.603 158.81V147.817ZM903.092 72.0927C920.516 72.0927 933.951 77.7924 943.397 89.1918C952.842 100.591 957.565 117.446 957.565 139.756C957.565 161.904 952.842 178.677 943.397 190.076C933.951 201.313 920.516 206.931 903.092 206.931C888.11 206.931 876.059 202.046 866.939 192.275V252.122H818.329V75.024H857.901L862.054 93.3444C871.499 79.1766 885.178 72.0927 903.092 72.0927ZM887.947 108.001C880.781 108.001 875.407 110.525 871.825 115.573C868.242 120.622 866.451 127.217 866.451 135.359V143.42C866.451 151.563 868.242 158.24 871.825 163.451C875.407 168.499 880.781 171.023 887.947 171.023C901.952 171.023 908.954 162.636 908.954 145.863V132.917C908.954 116.306 901.952 108.001 887.947 108.001ZM982.723 59.8791V26.9022H1031.33V59.8791H982.723ZM982.723 204V75.024H1031.33V204H982.723ZM1209.41 204H1152.74L1128.31 163.451H1127.33L1102.66 204H1048.68L1098.27 135.604L1053.56 75.024H1110.72L1131.24 109.222H1132.22L1152.74 75.024H1206.48L1161.04 136.825L1209.41 204ZM1287.92 72.0927C1311.53 72.0927 1329.52 77.6295 1341.9 88.7032C1354.44 99.7769 1360.71 116.713 1360.71 139.512V147.817H1263.98C1263.98 157.1 1266.01 164.102 1270.08 168.825C1274.32 173.547 1280.91 175.909 1289.87 175.909C1298.01 175.909 1303.96 174.199 1307.7 170.779C1311.61 167.359 1313.57 162.799 1313.57 157.1H1360.71C1360.71 172.733 1354.77 184.947 1342.88 193.741C1330.99 202.534 1313.65 206.931 1290.85 206.931C1266.91 206.931 1248.34 201.394 1235.15 190.321C1221.96 179.084 1215.37 162.148 1215.37 139.512C1215.37 117.365 1221.8 100.591 1234.67 89.1918C1247.53 77.7924 1265.28 72.0927 1287.92 72.0927ZM1289.87 103.115C1274.56 103.115 1266.01 110.362 1264.22 124.856H1311.61C1311.61 118.179 1309.66 112.886 1305.75 108.978C1302 105.07 1296.71 103.115 1289.87 103.115ZM1385.87 204V26.9022H1434.48V204H1385.87Z" fill="black"/>
</mask>
<g mask="url(#mask0_12_214)">
<rect x="-13.2605" y="-371.829" width="1509.26" height="1013.86" fill="url(#pattern0_12_214)"/>
</g>
<defs>
<pattern id="pattern0_12_214" patternContentUnits="objectBoundingBox" width="1" height="1">
<use xlink:href="#image0_12_214" transform="matrix(0.00120919 0 0 0.00180004 0 -0.0580127)"/>
</pattern>
<image id="image0_357_247" height="620px" xlinkHref="/public/header.jpg" style="width: 100%;" />
</defs>
</svg>
