<svg viewBox="0 0 1492 234" fill="none" xmlns="http://www.w3.org/2000/svg">
<path d="M0.666667 6C0.666667 8.94552 3.05448 11.3333 6 11.3333C8.94552 11.3333 11.3333 8.94552 11.3333 6C11.3333 3.05448 8.94552 0.666667 6 0.666667C3.05448 0.666667 0.666667 3.05448 0.666667 6ZM1483.79 233.207C1484.18 233.598 1484.82 233.598 1485.21 233.207L1491.57 226.843C1491.96 226.453 1491.96 225.819 1491.57 225.429C1491.18 225.038 1490.55 225.038 1490.16 225.429L1484.5 231.086L1478.84 225.429C1478.45 225.038 1477.82 225.038 1477.43 225.429C1477.04 225.819 1477.04 226.453 1477.43 226.843L1483.79 233.207ZM776.284 154.916L777 154.218L776.284 154.916ZM645.716 21.0838L645 21.7821L645.716 21.0838ZM6 7H609.927V5H6V7ZM645 21.7821L775.568 155.615L777 154.218L646.432 20.3855L645 21.7821ZM812.073 171H1434.5V169H812.073V171ZM1483.5 220V232.5H1485.5V220H1483.5ZM1434.5 171C1461.56 171 1483.5 192.938 1483.5 220H1485.5C1485.5 191.833 1462.67 169 1434.5 169V171ZM775.568 155.615C785.166 165.452 798.329 171 812.073 171V169C798.868 169 786.221 163.67 777 154.218L775.568 155.615ZM609.927 7C623.132 7 635.779 12.33 645 21.7821L646.432 20.3855C636.834 10.5475 623.671 5 609.927 5V7Z" fill="#bfe689"/>
</svg>

