<svg width="394" height="69" viewBox="0 0 394 69" fill="none" xmlns="http://www.w3.org/2000/svg">
<path d="M0.666667 6C0.666667 8.94552 3.05448 11.3333 6 11.3333C8.94552 11.3333 11.3333 8.94552 11.3333 6C11.3333 3.05448 8.94552 0.666667 6 0.666667C3.05448 0.666667 0.666667 3.05448 0.666667 6ZM385.293 68.7071C385.683 69.0976 386.317 69.0976 386.707 68.7071L393.071 62.3431C393.462 61.9526 393.462 61.3195 393.071 60.9289C392.681 60.5384 392.047 60.5384 391.657 60.9289L386 66.5858L380.343 60.9289C379.953 60.5384 379.319 60.5384 378.929 60.9289C378.538 61.3195 378.538 61.9526 378.929 62.3431L385.293 68.7071ZM385 36V68H387V36H385ZM6 7H356V5H6V7ZM387 36C387 18.8792 373.121 5 356 5V7C372.016 7 385 19.9837 385 36H387Z" fill="#BFE689"/>
</svg>
