<?xml version="1.0" encoding="utf-8"?>
<!-- Generator: Adobe Illustrator 27.1.1, SVG Export Plug-In . SVG Version: 6.00 Build 0)  -->
<svg version="1.1" id="Layer_1" xmlns="http://www.w3.org/2000/svg" xmlns:xlink="http://www.w3.org/1999/xlink" x="0px" y="0px"
	 viewBox="0 0 1080 364.1" style="enable-background:new 0 0 1080 364.1;" xml:space="preserve">
<style type="text/css">
	.st0{fill:#FFFFFF;}
	.st1{fill:#0DB8A6;}
	.st2{fill:#231F20;}
</style>
<g>
	<path class="st0" d="M78.6,172.7c0,17.5-15.3,30.2-38.1,30.2c-21.3,0-35.4-10-40.5-23.6l9.2-5.3c3.8,11.5,15.3,18.7,31.3,18.7
		c14.9,0,27.5-6.6,27.5-20c0-29-64.5-12.4-64.5-50.7c0-16.8,14.5-30.2,36.2-30.2c17.3,0,30.5,8.3,36.2,21.3l-8.9,5.1
		C62.4,107.1,51.3,102,39.6,102c-13.8,0-25.6,7.2-25.6,20C14.1,150.6,78.6,133.7,78.6,172.7z"/>
	<path class="st0" d="M193.4,134.4v66.3h-10.9v-66.3c0-19.6-11.3-32.4-31.3-32.4c-20.9,0-37.3,13.6-37.3,42.4v56.2h-10.7V51.5H114
		v62.8c8.1-15.8,21.7-22.6,38.1-22.6C177.4,91.8,193.4,108.6,193.4,134.4z"/>
	<path class="st0" d="M328,94.1v106.5h-10.9v-24.1c-9,16-25.4,26.4-45.8,26.4c-30.2,0-55.2-24.1-55.2-55.6
		c0-31.5,24.9-55.6,55.2-55.6c20.4,0,36.8,10.4,45.8,26.4V94.1H328z M317.2,147.4c0-25.3-19.6-45.4-44.9-45.4
		c-25.4,0-45.2,20-45.2,45.4c0,25.4,19.8,45.4,45.2,45.4C297.6,192.7,317.2,172.7,317.2,147.4z"/>
	<path class="st0" d="M465.4,51.5v149.1h-10.7v-24.7c-8.7,16.4-25.1,27.1-45.8,27.1c-30.5,0-55.2-24.1-55.2-55.6
		c0-31.5,24.7-55.6,55.2-55.6c20.7,0,37.1,10.7,45.8,27.1V51.5H465.4z M454.8,147.4c0-25.3-19.8-45.4-45.2-45.4
		c-25.4,0-45.2,20-45.2,45.4c0,25.4,19.8,45.4,45.2,45.4C435,192.7,454.8,172.7,454.8,147.4z"/>
	<path class="st0" d="M602.8,94.1v106.5H592v-24.1c-9,16-25.4,26.4-45.8,26.4c-30.2,0-55.2-24.1-55.2-55.6
		c0-31.5,24.9-55.6,55.2-55.6c20.4,0,36.8,10.4,45.8,26.4V94.1H602.8z M592,147.4C592,122,572.4,102,547,102
		c-25.4,0-45.2,20-45.2,45.4c0,25.4,19.8,45.4,45.2,45.4C572.4,192.7,592,172.7,592,147.4z"/>
	<path class="st0" d="M978.6,175.1c8.7,0,16.2-3.4,20.4-8.1l25.6,14.7c-10.4,14.5-26.2,21.9-46.4,21.9c-36.4,0-59-24.5-59-56.2
		s23-56.2,56.7-56.2c31.1,0,54.1,24.1,54.1,56.2c0,4.5-0.4,8.7-1.3,12.8H953C957.1,171.2,966.9,175.1,978.6,175.1z M998.2,136.3
		c-3.4-12.4-13-16.8-22.6-16.8c-12.1,0-20.2,6-23.2,16.8H998.2z"/>
	<path class="st0" d="M1048.1,45.1h31.9v155.5h-31.9V45.1z"/>
	<g>
		<rect x="630.7" class="st1" width="288.5" height="288.5"/>
		<path class="st2" d="M745.3,147.5c0,31.7-23,56.2-50.9,56.2c-14.3,0-24.7-4.9-31.7-13v52.6h-31.9V94.2h31.9v10
			c7-8.1,17.5-13,31.7-13C722.3,91.2,745.3,115.7,745.3,147.5z M713.4,147.5c0-16-10.7-26-25.3-26c-14.7,0-25.4,10-25.4,26
			s10.7,26,25.4,26C702.7,173.4,713.4,163.4,713.4,147.5z"/>
		<path class="st2" d="M882.7,200.7l-19.8-28.1L843,200.7h-36.6l38.1-54.1l-36.9-52.4h36.6l18.5,26.4l18.5-26.4H918l-36.9,52.4
			l38.1,54.1H882.7z"/>
		<g>
			<rect x="759.5" y="92.2" class="st2" width="31.9" height="106.5"/>
			<rect x="759.5" y="47.8" class="st0" width="31.9" height="31.9"/>
		</g>
	</g>
	<g>
		<path class="st0" d="M806.2,330c1.7,0.8,3.1,2,4.1,3.5c1,1.5,1.5,3.3,1.5,5.3c0,3-1,5.5-3.1,7.5c-2.1,2-4.7,3-7.7,3h-16.1v-37.3
			h14.9c2.9,0,5.4,1,7.4,2.9c2,2,3,4.4,3,7.2C810.2,325.6,808.9,328.2,806.2,330z M799.8,316.7h-10v11.4h10c1.6,0,2.9-0.6,3.9-1.7
			c1.1-1.1,1.6-2.5,1.6-4c0-1.6-0.5-2.9-1.6-4C802.6,317.3,801.3,316.7,799.8,316.7z M801,344.7c1.7,0,3.1-0.6,4.2-1.8
			c1.1-1.2,1.7-2.6,1.7-4.3c0-1.7-0.6-3.1-1.7-4.3s-2.5-1.8-4.2-1.8h-11.1v12.1H801z"/>
		<path class="st0" d="M835,322.7h5L829.1,351c-1.1,3-2.7,5.3-4.8,6.9c-2,1.6-4.4,2.3-7.1,2.1v-4.3c3.3,0.2,5.6-1.6,7.2-5.4l0.5-1
			l-11.6-26.5h5l8.9,20.4L835,322.7z"/>
		<path class="st0" d="M882.2,349.4l-3-8.4h-16.8l-3,8.4H854l13.9-37.3h5.6l13.9,37.3H882.2z M864.1,336.4h13.4l-6.7-18.4
			L864.1,336.4z"/>
		<path class="st0" d="M904.8,327.2h-7.1v14.4c0,1.3,0.3,2.2,0.8,2.8c0.5,0.6,1.3,0.8,2.4,0.9c1.1,0,2.4,0,3.9-0.1v4.2
			c-4.1,0.5-7,0.2-8.9-1s-2.8-3.4-2.8-6.7v-14.4h-5.3v-4.5h5.3v-6.1l4.6-1.4v7.5h7.1V327.2z"/>
		<path class="st0" d="M915.1,327.2c1.5-3.3,4.3-5,8.3-5v4.8c-2.3-0.1-4.2,0.5-5.9,1.8c-1.6,1.3-2.5,3.4-2.5,6.3v14.1h-4.6v-26.6
			h4.6V327.2z"/>
		<path class="st0" d="M930.3,317.9c-0.9,0-1.6-0.3-2.2-0.9c-0.6-0.6-0.9-1.3-0.9-2.2c0-0.9,0.3-1.6,0.9-2.2
			c0.6-0.6,1.3-0.9,2.2-0.9c0.9,0,1.6,0.3,2.2,0.9c0.6,0.6,0.9,1.4,0.9,2.2c0,0.9-0.3,1.6-0.9,2.2
			C931.9,317.6,931.2,317.9,930.3,317.9z M928,349.4v-26.6h4.6v26.6H928z"/>
		<path class="st0" d="M962.2,346c-2.7,2.7-6.1,4.1-10,4.1s-7.2-1.3-9.9-4.1c-2.7-2.7-4.1-6-4.1-10c0-3.9,1.4-7.3,4.1-10
			c2.7-2.7,6-4,9.9-4s7.2,1.4,10,4c2.7,2.7,4.1,6,4.1,10C966.3,340,964.9,343.3,962.2,346z M952.2,345.5c2.7,0,4.9-0.9,6.7-2.7
			c1.8-1.8,2.7-4.1,2.7-6.8c0-2.7-0.9-5-2.7-6.8c-1.8-1.8-4-2.7-6.7-2.7c-2.6,0-4.8,0.9-6.7,2.7c-1.8,1.8-2.7,4.1-2.7,6.8
			c0,2.7,0.9,5,2.7,6.8C947.4,344.6,949.6,345.5,952.2,345.5z"/>
		<path class="st0" d="M985,322c3.1,0,5.6,1,7.5,3c1.9,2,2.8,4.6,2.8,8v16.4h-4.6v-16.1c0-2.2-0.6-3.8-1.8-5
			c-1.2-1.2-2.8-1.8-4.8-1.8c-2.3,0-4.2,0.7-5.6,2.2c-1.4,1.4-2.1,3.7-2.1,6.6v14.1h-4.6v-26.6h4.6v3.8
			C978.3,323.6,981.2,322,985,322z"/>
		<path class="st0" d="M1036.9,330c1.7,0.8,3.1,2,4.1,3.5c1,1.5,1.5,3.3,1.5,5.3c0,3-1,5.5-3.1,7.5c-2.1,2-4.7,3-7.7,3h-16.1v-37.3
			h14.9c2.9,0,5.4,1,7.4,2.9c2,2,3,4.4,3,7.2C1041,325.6,1039.6,328.2,1036.9,330z M1030.5,316.7h-10v11.4h10c1.6,0,2.9-0.6,3.9-1.7
			c1.1-1.1,1.6-2.5,1.6-4c0-1.6-0.5-2.9-1.6-4C1033.4,317.3,1032.1,316.7,1030.5,316.7z M1031.7,344.7c1.7,0,3.1-0.6,4.2-1.8
			c1.1-1.2,1.7-2.6,1.7-4.3c0-1.7-0.6-3.1-1.7-4.3s-2.5-1.8-4.2-1.8h-11.1v12.1H1031.7z"/>
		<path class="st0" d="M1062.9,312.1c5.1,0,9.3,1.8,12.7,5.4c3.4,3.6,5,8,5,13.2c0,5.2-1.7,9.6-5,13.2c-3.4,3.6-7.6,5.4-12.7,5.4
			h-14.5v-37.3H1062.9z M1062.9,344.7c3.8,0,6.9-1.3,9.3-4c2.4-2.7,3.6-6,3.6-10c0-4-1.2-7.3-3.6-10c-2.4-2.7-5.5-4-9.3-4h-9.6v27.9
			H1062.9z"/>
	</g>
</g>
</svg>
