<?xml version="1.0" encoding="UTF-8"?>
<svg id="Layer_1" data-name="Layer 1" xmlns="http://www.w3.org/2000/svg" viewBox="0 0 595.28 159.03">
  <defs>
    <style>
      .cls-1 {
        fill: #0f1827;
      }

      .cls-2 {
        fill: #fff;
      }

      .cls-3 {
        fill: #12b7a4;
      }

      .cls-4 {
        fill: #f9fbfd;
      }
    </style>
  </defs>
  <path class="cls-4" d="m43.33,95.19c0,9.63-8.45,16.67-21.02,16.67-11.74,0-19.49-5.52-22.31-13.03l5.05-2.94c2.11,6.34,8.45,10.33,17.26,10.33,8.22,0,15.15-3.64,15.15-11.03,0-15.97-35.58-6.81-35.58-27.94,0-9.28,7.98-16.67,19.96-16.67,9.51,0,16.79,4.58,19.96,11.74l-4.93,2.82c-2.47-6.11-8.57-8.92-15.03-8.92-7.63,0-14.09,3.99-14.09,11.04,0,15.73,35.58,6.46,35.58,27.94Z"/>
  <path class="cls-4" d="m106.61,74.06v36.52h-5.99v-36.52c0-10.8-6.22-17.85-17.26-17.85s-20.55,7.51-20.55,23.36v31h-5.87V28.39h5.87v34.64c4.46-8.69,11.98-12.44,21.02-12.44,13.97,0,22.78,9.28,22.78,23.48Z"/>
  <path class="cls-4" d="m180.81,51.87v58.7h-5.99v-13.27c-4.93,8.81-13.97,14.56-25.24,14.56-16.67,0-30.41-13.27-30.41-30.65s13.74-30.64,30.41-30.64c11.27,0,20.31,5.75,25.24,14.56v-13.27h5.99Zm-5.99,29.35c0-13.97-10.8-25.01-24.77-25.01s-24.89,11.04-24.89,25.01,10.92,25.01,24.89,25.01,24.77-11.03,24.77-25.01Z"/>
  <path class="cls-4" d="m256.54,28.39v82.19h-5.87v-13.62c-4.81,9.04-13.85,14.91-25.24,14.91-16.79,0-30.41-13.27-30.41-30.65s13.62-30.64,30.41-30.64c11.39,0,20.43,5.87,25.24,14.91V28.39h5.87Zm-5.87,52.83c0-13.97-10.92-25.01-24.89-25.01s-24.89,11.04-24.89,25.01,10.92,25.01,24.89,25.01,24.89-11.03,24.89-25.01Z"/>
  <path class="cls-4" d="m332.27,51.87v58.7h-5.99v-13.27c-4.93,8.81-13.97,14.56-25.24,14.56-16.67,0-30.41-13.27-30.41-30.65s13.74-30.64,30.41-30.64c11.27,0,20.31,5.75,25.24,14.56v-13.27h5.99Zm-5.99,29.35c0-13.97-10.8-25.01-24.77-25.01s-24.89,11.04-24.89,25.01,10.92,25.01,24.89,25.01,24.77-11.03,24.77-25.01Z"/>
  <path class="cls-4" d="m539.39,96.49c4.82,0,8.92-1.88,11.27-4.46l14.09,8.1c-5.75,7.98-14.44,12.09-25.59,12.09-20.08,0-32.52-13.5-32.52-31s12.68-30.99,31.23-30.99c17.14,0,29.82,13.27,29.82,30.99,0,2.47-.23,4.82-.7,7.04h-41.68c2.23,6.11,7.63,8.22,14.09,8.22Zm10.8-21.37c-1.88-6.81-7.16-9.28-12.44-9.28-6.69,0-11.15,3.29-12.8,9.28h25.24Z"/>
  <path class="cls-4" d="m577.67,24.86h17.61v85.71h-17.61V24.86Z"/>
  <rect class="cls-3" x="347.64" width="159.03" height="159.03"/>
  <path class="cls-1" d="m410.8,81.28c0,17.49-12.68,31-28.06,31-7.87,0-13.62-2.7-17.49-7.16v29h-17.61V51.93h17.61v5.52c3.88-4.46,9.63-7.16,17.49-7.16,15.38,0,28.06,13.5,28.06,30.99Zm-17.61,0c0-8.81-5.87-14.32-13.97-14.32s-13.97,5.52-13.97,14.32,5.87,14.33,13.97,14.33,13.97-5.52,13.97-14.33Z"/>
  <path class="cls-1" d="m486.5,110.63l-10.92-15.5-10.92,15.5h-20.2l21.02-29.82-20.31-28.88h20.2l10.21,14.56,10.22-14.56h20.2l-20.31,28.88,21.02,29.82h-20.2Z"/>
  <rect class="cls-1" x="418.6" y="50.82" width="17.61" height="58.7"/>
  <rect class="cls-2" x="418.59" y="26.37" width="17.58" height="17.58"/>
</svg>